<?xml version="1.0" standalone="no"?>
<!DOCTYPE svg PUBLIC "-//W3C//DTD SVG 20010904//EN"
 "http://www.w3.org/TR/2001/REC-SVG-20010904/DTD/svg10.dtd">
<svg version="1.0" xmlns="http://www.w3.org/2000/svg"
 width="151.000000pt" height="151.000000pt" viewBox="0 0 151.000000 151.000000"
 preserveAspectRatio="xMidYMid meet">
<metadata>
Created by potrace 1.11, written by Peter Selinger 2001-2013
</metadata>
<g transform="translate(0.000000,151.000000) scale(0.100000,-0.100000)"
fill="#000000" stroke="none">
<path d="M505 1126 c-56 -27 -82 -47 -132 -105 -35 -40 -63 -75 -63 -79 0 -14
440 -577 450 -577 10 0 450 563 450 577 0 4 -28 39 -62 79 -52 59 -76 77 -136
105 l-73 34 -182 -1 -182 0 -70 -33z m472 -11 l58 -26 -47 -27 c-25 -15 -87
-47 -137 -72 l-91 -44 -111 54 c-61 30 -123 63 -137 72 l-26 17 54 25 c51 23
67 25 217 25 153 1 166 0 220 -24z m-307 -155 l55 -28 -38 -16 c-21 -9 -63
-28 -94 -41 -30 -14 -59 -25 -64 -25 -5 0 11 32 34 70 23 39 44 70 47 70 3 -1
30 -14 60 -30z m287 -40 c23 -38 39 -70 34 -70 -5 0 -34 11 -64 25 -31 13 -73
32 -94 41 l-38 16 55 28 c30 16 57 29 60 30 3 0 24 -31 47 -70z"/>
</g>
</svg>
